<svg width="29" height="26" viewBox="0 0 29 26" fill="none" xmlns="http://www.w3.org/2000/svg">
<path opacity="0.7" fill-rule="evenodd" clip-rule="evenodd" d="M21.887 4.58491C21.9437 4.68396 22.0428 4.75472 22.1703 4.75472C25.5703 4.75472 28.347 7.5283 28.347 10.9245V19.3302C28.347 22.7264 25.5703 25.5 22.1703 25.5H6.19034C2.77617 25.5 0.0136719 22.7264 0.0136719 19.3302V10.9245C0.0136719 7.5283 2.77617 4.75472 6.19034 4.75472C6.30367 4.75472 6.41701 4.69811 6.45951 4.58491L6.54451 4.41509C6.59335 4.31228 6.64349 4.20667 6.69439 4.09946C7.0568 3.33611 7.45773 2.49161 7.70617 1.99528C8.35784 0.721698 9.46284 0.0141509 10.837 0H17.5095C18.8837 0.0141509 20.0028 0.721698 20.6545 1.99528C20.8776 2.44107 21.2176 3.15916 21.5453 3.85126C21.6129 3.99401 21.6799 4.13566 21.7453 4.27358L21.887 4.58491ZM20.8528 10.0188C20.8528 10.7264 21.4195 11.2924 22.1278 11.2924C22.8362 11.2924 23.417 10.7264 23.417 10.0188C23.417 9.31129 22.8362 8.73111 22.1278 8.73111C21.4195 8.73111 20.8528 9.31129 20.8528 10.0188ZM11.7293 12.2122C12.3952 11.5471 13.2593 11.1934 14.1802 11.1934C15.101 11.1934 15.9652 11.5471 16.6168 12.1981C17.2685 12.849 17.6227 13.7122 17.6227 14.632C17.6085 16.5283 16.0785 18.0707 14.1802 18.0707C13.2593 18.0707 12.3952 17.7169 11.7435 17.066C11.0918 16.4151 10.7377 15.5518 10.7377 14.632V14.6179C10.7235 13.7264 11.0777 12.8632 11.7293 12.2122ZM18.1043 18.566C17.0985 19.5707 15.7101 20.1934 14.1801 20.1934C12.6926 20.1934 11.3043 19.6132 10.2418 18.566C9.19347 17.5047 8.61264 16.1179 8.61264 14.6321C8.59847 13.1604 9.1793 11.7736 10.2276 10.7122C11.2901 9.65092 12.6926 9.07073 14.1801 9.07073C15.6676 9.07073 17.0701 9.65092 18.1185 10.6981C19.1668 11.7594 19.7476 13.1604 19.7476 14.6321C19.7335 16.1745 19.1101 17.5613 18.1043 18.566Z" fill="#030229"/>
</svg>
