<svg width="14" height="14" viewBox="0 0 14 14" fill="none" xmlns="http://www.w3.org/2000/svg">
<g clip-path="url(#clip0_99_320)">
<path d="M8.95529 11.4369C8.47532 12.1572 8.02575 12.8316 7.57617 13.506C7.52241 13.5866 7.46631 13.6661 7.41449 13.7483C7.30307 13.924 7.14724 14.0199 6.93804 13.9918C6.7226 13.9626 6.59754 13.8243 6.53638 13.6194C6.27847 12.7549 6.0194 11.8907 5.76033 11.0266C5.09843 8.81998 4.43575 6.61333 3.77385 4.40668C3.67685 4.08371 3.79879 3.81528 4.08747 3.75177C4.18564 3.72996 4.30174 3.74437 4.39991 3.77359C5.99447 4.24773 7.58747 4.72692 9.18086 5.20534C10.6488 5.64597 12.1164 6.08855 13.5851 6.52606C13.7993 6.58995 13.9563 6.70216 13.991 6.93124C14.0257 7.16149 13.9041 7.31421 13.7191 7.43654C13.0101 7.90483 12.3045 8.37818 11.5978 8.84959C11.5577 8.87647 11.5187 8.90491 11.4338 8.96452C11.4926 9.00114 11.546 9.02179 11.583 9.0588C12.3232 9.79591 13.0619 10.535 13.8001 11.2736C14.0674 11.5413 14.0678 11.7875 13.8013 12.0544C13.2177 12.6388 12.6333 13.2228 12.049 13.8064C11.7895 14.0654 11.5402 14.0643 11.2788 13.8033C10.5397 13.065 9.80107 12.3263 9.06359 11.5869C9.02619 11.5495 9.00087 11.5 8.95607 11.4373L8.95529 11.4369ZM12.8686 11.6445C12.8266 11.6083 12.7837 11.576 12.7459 11.5386C11.9862 10.7796 11.2266 10.0199 10.4673 9.26022C10.1661 8.95906 10.1942 8.66142 10.5452 8.42766C11.1272 8.03963 11.7089 7.65159 12.2905 7.26356C12.3334 7.23473 12.375 7.20356 12.4389 7.15798C9.91444 6.40061 7.41527 5.65065 4.89429 4.89445C5.65203 7.41979 6.40119 9.91668 7.15776 12.4393C7.20256 12.3762 7.23373 12.3349 7.26256 12.292C7.65058 11.7104 8.03821 11.1283 8.42663 10.5467C8.66232 10.1941 8.95724 10.1656 9.25916 10.4672C10.0224 11.2296 10.7852 11.9928 11.5483 12.7552C11.585 12.7919 11.6243 12.8265 11.6566 12.8565C12.0591 12.4541 12.4533 12.0598 12.8686 11.6445Z" fill="#4E14DD"/>
<path d="M4.66524 1.18085C4.66524 1.39941 4.6668 1.61797 4.66485 1.83693C4.66213 2.1225 4.46656 2.33054 4.20203 2.33249C3.93712 2.33443 3.73415 2.12639 3.73259 1.84394C3.73025 1.39201 3.73025 0.940085 3.73259 0.488547C3.73454 0.204145 3.93595 -0.00194953 4.20242 -1.56594e-06C4.46695 0.0019464 4.66252 0.209989 4.66485 0.49556C4.6668 0.723861 4.66524 0.952162 4.66524 1.18046V1.18085Z" fill="#4E14DD"/>
<path d="M1.16018 4.66577C0.936558 4.66577 0.713328 4.66772 0.489708 4.66538C0.206872 4.66226 -0.00116384 4.46123 4.8999e-06 4.1967C0.00117364 3.931 0.208041 3.73426 0.493604 3.73309C0.940454 3.73114 1.38769 3.73114 1.83454 3.73309C2.1205 3.73426 2.32892 3.92944 2.33165 4.19398C2.33438 4.46435 2.12439 4.66343 1.83026 4.66538C1.60664 4.66694 1.38341 4.66538 1.15979 4.66538L1.16018 4.66577Z" fill="#4E14DD"/>
<path d="M1.4695 0.929955C1.52521 0.960343 1.64637 0.998134 1.72896 1.07644C2.04608 1.3776 2.35307 1.68888 2.65889 2.00172C2.84628 2.1934 2.84511 2.47352 2.66629 2.65702C2.48319 2.8448 2.19685 2.84948 2.00089 2.6578C1.68844 2.35197 1.37989 2.04185 1.07329 1.73018C0.92681 1.58135 0.892137 1.38344 0.976287 1.20657C1.06161 1.02735 1.20848 0.939305 1.46989 0.929565L1.4695 0.929955Z" fill="#4E14DD"/>
<path d="M7.46946 1.46174C7.43752 1.52057 7.39856 1.6468 7.31752 1.73251C7.02066 2.04652 6.71172 2.34962 6.40279 2.65234C6.20488 2.84674 5.92243 2.84713 5.73699 2.66247C5.55116 2.47741 5.55038 2.19379 5.74361 1.99665C6.04982 1.68459 6.35954 1.37564 6.67121 1.06903C6.81691 0.925665 6.99417 0.89216 7.18195 0.972416C7.36389 1.05033 7.45388 1.19838 7.46907 1.46135L7.46946 1.46174Z" fill="#4E14DD"/>
<path d="M2.80268 6.12983C2.77307 6.18593 2.73723 6.30827 2.65892 6.39047C2.35466 6.7111 2.04027 7.02239 1.72315 7.33056C1.53225 7.51639 1.24864 7.5086 1.06826 7.32588C0.887497 7.14316 0.883212 6.86188 1.06982 6.67098C1.37876 6.35463 1.69198 6.04256 2.00754 5.73323C2.15364 5.59025 2.33168 5.55869 2.51906 5.6405C2.70061 5.71998 2.78943 5.86881 2.80229 6.13022L2.80268 6.12983Z" fill="#4E14DD"/>
</g>
<defs>
<clipPath id="clip0_99_320">
<rect width="14" height="14" fill="white"/>
</clipPath>
</defs>
</svg>
