<svg width="12" height="12" viewBox="0 0 12 12" fill="none" xmlns="http://www.w3.org/2000/svg">
<path d="M5.61966 12C5.4034 11.9893 5.18715 11.9971 4.97485 11.9643C4.67945 11.9158 4.41047 11.7664 4.2145 11.5419C4.01853 11.3175 3.90793 11.0322 3.90186 10.7354C3.89789 10.5799 3.90654 10.4209 3.87663 10.2708C3.85142 10.1437 3.79699 10.024 3.71754 9.92106C3.6381 9.81814 3.53579 9.73477 3.41857 9.67742C3.30135 9.62007 3.17236 9.59029 3.04165 9.59039C2.91093 9.5905 2.78199 9.62048 2.66486 9.67801C2.54808 9.73411 2.43779 9.80487 2.32209 9.86347C2.03775 10.0103 1.70823 10.0462 1.39852 9.96402C1.08881 9.88186 0.821385 9.68764 0.648981 9.41966C0.468767 9.142 0.30441 8.85542 0.150507 8.56383C0.00157701 8.28242 -0.03536 7.95584 0.0470066 7.64872C0.129373 7.3416 0.325041 7.07633 0.595278 6.90542C0.692954 6.84217 0.796758 6.78821 0.895155 6.72675C1.44986 6.3762 1.45094 5.619 0.895155 5.26845C0.788828 5.20163 0.678897 5.14338 0.57257 5.07406C0.039135 4.72029 -0.156218 4.02027 0.135009 3.45531C0.294663 3.14609 0.470183 2.84518 0.660876 2.55375C1.02311 2.00023 1.75442 1.83335 2.35489 2.14531C2.52862 2.23572 2.70379 2.34292 2.89121 2.38258C3.4005 2.48978 3.87663 2.09957 3.90041 1.58214C3.90762 1.41348 3.90041 1.24196 3.92528 1.07615C3.97166 0.780437 4.12232 0.510614 4.35046 0.314655C4.57861 0.118696 4.86945 0.00930242 5.17129 0.00592207C5.53929 0.00163401 5.91125 -0.013376 6.27492 0.030934C6.88513 0.105618 7.33603 0.63841 7.35621 1.25017C7.3609 1.41026 7.35188 1.57357 7.38288 1.72901C7.40884 1.85485 7.46343 1.97315 7.5425 2.0749C7.62157 2.17665 7.72303 2.25916 7.83915 2.31613C7.95526 2.3731 8.08296 2.40304 8.21251 2.40366C8.34207 2.40427 8.47006 2.37556 8.58672 2.31969C8.70818 2.26252 8.82172 2.1889 8.94138 2.12816C9.22402 1.98336 9.55091 1.94809 9.85835 2.02922C10.1658 2.11034 10.4317 2.30204 10.6044 2.56697C10.7846 2.84784 10.954 3.13871 11.109 3.43459C11.2565 3.71665 11.292 4.04331 11.2084 4.35003C11.1247 4.65675 10.9281 4.92123 10.6574 5.09121C10.5493 5.16268 10.4318 5.22057 10.3243 5.29311C10.2083 5.37055 10.1131 5.47502 10.0472 5.59738C9.98135 5.71974 9.94673 5.85626 9.94641 5.99496C9.94609 6.13366 9.98008 6.27033 10.0454 6.39299C10.1107 6.51565 10.2054 6.62055 10.3211 6.69852C10.4245 6.76999 10.5374 6.82573 10.6455 6.89256C10.9222 7.06201 11.1238 7.32925 11.2095 7.64031C11.2952 7.95137 11.2586 8.28309 11.1072 8.56847C10.9558 8.85649 10.7907 9.13843 10.6156 9.41287C10.2551 9.97711 9.53428 10.1633 8.93309 9.8624C8.74999 9.77056 8.56869 9.6555 8.37298 9.61226C7.85865 9.49934 7.38036 9.89527 7.35801 10.4188C7.349 10.6267 7.35369 10.8412 7.30467 11.0413C7.16951 11.5933 6.66779 11.9753 6.09471 11.9893C5.93756 11.9932 5.78005 11.9893 5.62254 11.9893L5.61966 12ZM3.00006 8.72892C3.79301 8.73071 4.48251 9.22741 4.68255 9.94566C4.74922 10.1858 4.74706 10.4459 4.76328 10.6986C4.7795 10.9512 4.94998 11.1292 5.20048 11.1327C5.48883 11.1367 5.77717 11.1374 6.06551 11.1327C6.30808 11.1285 6.48577 10.9469 6.49298 10.7039C6.49587 10.5967 6.49298 10.4895 6.49298 10.3823C6.51677 9.39321 7.43334 8.61814 8.42344 8.74214C8.74026 8.78181 9.0131 8.91867 9.28234 9.07375C9.53465 9.21669 9.76784 9.15415 9.9149 8.90652C10.0497 8.68044 10.1819 8.45282 10.3114 8.22364C10.4527 7.97351 10.3896 7.74088 10.1452 7.59401C10.0569 7.54113 9.965 7.49217 9.87849 7.43714C9.63271 7.28224 9.43054 7.0681 9.29088 6.81472C9.15122 6.56134 9.07863 6.27699 9.07989 5.98825C9.08115 5.69951 9.15622 5.4158 9.29809 5.16363C9.43995 4.91145 9.64398 4.69905 9.89111 4.54627C9.97869 4.49195 10.0713 4.443 10.1575 4.38904C10.3827 4.25111 10.4501 4.01669 10.3229 3.78978C10.1857 3.54417 10.0442 3.30118 9.89832 3.06081C9.7646 2.84069 9.53104 2.78137 9.30325 2.90251C9.20017 2.95683 9.10177 3.02007 8.99761 3.0726C8.78348 3.17998 8.54916 3.24203 8.30954 3.25479C8.06992 3.26756 7.83025 3.23076 7.60575 3.14674C7.38125 3.06273 7.17683 2.93333 7.00549 2.76677C6.83415 2.60021 6.69963 2.40013 6.61048 2.17926C6.49586 1.89338 6.48721 1.59858 6.48866 1.29877C6.48866 1.04113 6.30592 0.860675 6.04785 0.857817C5.76455 0.854601 5.4809 0.853886 5.19796 0.857817C4.94818 0.861033 4.76941 1.04363 4.76364 1.29306C4.76112 1.40454 4.76364 1.51603 4.76112 1.62752C4.72688 2.60377 3.81319 3.36919 2.83751 3.2477C2.52069 3.20839 2.24712 3.07403 1.97788 2.91788C1.72018 2.76851 1.48806 2.83319 1.33668 3.08904C1.20476 3.31202 1.07441 3.53583 0.945614 3.76048C0.79928 4.01526 0.862355 4.25004 1.11466 4.39833C1.19972 4.44836 1.28658 4.49588 1.36984 4.54841C1.61517 4.70195 1.81747 4.91439 1.95798 5.16604C2.0985 5.41769 2.17269 5.70043 2.1737 5.98806C2.1747 6.2757 2.10249 6.55894 1.96374 6.81155C1.82499 7.06417 1.62419 7.27798 1.37993 7.43321C1.28189 7.4961 1.17737 7.54899 1.07861 7.61188C0.875691 7.73838 0.806128 7.97494 0.921105 8.18362C1.06311 8.44162 1.21137 8.69616 1.36588 8.94725C1.48914 9.14665 1.72198 9.20418 1.93211 9.09805C2.03231 9.04767 2.12746 8.98799 2.22586 8.93475C2.46381 8.80624 2.72918 8.73569 3.00006 8.72892Z" fill="#6F6C99"/>
<path d="M5.63391 3.85583C6.20728 3.8582 6.75623 4.08621 7.16007 4.48974C7.56391 4.89327 7.78959 5.43928 7.78748 6.00773C7.78348 6.57376 7.55388 7.11525 7.14875 7.5141C6.74362 7.91294 6.19584 8.13677 5.6249 8.13675C5.05148 8.13429 4.50251 7.90614 4.09872 7.50247C3.69494 7.0988 3.4694 6.55266 3.4717 5.98415C3.47588 5.4183 3.70552 4.87705 4.11055 4.47837C4.51558 4.07969 5.06316 3.85591 5.63391 3.85583ZM4.33385 5.99987C4.33613 6.33976 4.47377 6.66499 4.7168 6.90473C4.95983 7.14447 5.28856 7.2793 5.63139 7.27986C5.97447 7.2774 6.30265 7.14056 6.54437 6.89918C6.78609 6.65779 6.92174 6.33144 6.92173 5.99129C6.91982 5.65135 6.78228 5.32598 6.53915 5.08627C6.29602 4.84657 5.96707 4.71201 5.62418 4.71202C5.28099 4.71391 4.95253 4.85052 4.7107 5.09195C4.46887 5.33339 4.33336 5.65997 4.33385 6.00023V5.99987Z" fill="#6F6C99"/>
</svg>
