<svg width="16" height="17" viewBox="0 0 16 17" fill="none" xmlns="http://www.w3.org/2000/svg">
<path fill-rule="evenodd" clip-rule="evenodd" d="M14.6941 2.75652C15.0247 2.75652 15.3 3.03107 15.3 3.38042V3.70342C15.3 4.04426 15.0247 4.32731 14.6941 4.32731H0.606776C0.275281 4.32731 0 4.04426 0 3.70342V3.38042C0 3.03107 0.275281 2.75652 0.606776 2.75652H3.08513C3.58858 2.75652 4.02671 2.39868 4.13997 1.89378L4.26975 1.31409C4.47146 0.524445 5.13528 0 5.89499 0H9.40503C10.1565 0 10.8277 0.524445 11.022 1.27244L11.1609 1.89293C11.2733 2.39868 11.7114 2.75652 12.2157 2.75652H14.6941ZM13.4358 14.5639C13.6945 12.1525 14.1475 6.42355 14.1475 6.36575C14.1641 6.19065 14.107 6.0249 13.9938 5.89146C13.8723 5.76651 13.7185 5.69256 13.549 5.69256H1.75906C1.58876 5.69256 1.42674 5.76651 1.31431 5.89146C1.20023 6.0249 1.14402 6.19065 1.15228 6.36575C1.1538 6.37637 1.17006 6.57817 1.19723 6.91555C1.31796 8.41431 1.65421 12.5886 1.87149 14.5639C2.02525 16.0191 2.98005 16.9337 4.36307 16.9669C5.4303 16.9915 6.52977 17 7.65405 17C8.71301 17 9.78851 16.9915 10.8888 16.9669C12.3198 16.9422 13.2738 16.0438 13.4358 14.5639Z" fill="#E71D36"/>
</svg>
