<svg width="8" height="8" viewBox="0 0 8 8" fill="none" xmlns="http://www.w3.org/2000/svg">
<path fill-rule="evenodd" clip-rule="evenodd" d="M2.6705 7.09496L6.3315 2.3606C6.53046 2.10529 6.60121 1.81012 6.53489 1.50958C6.47741 1.23636 6.30939 0.976572 6.05737 0.779493L5.44278 0.291277C4.90778 -0.134234 4.24455 -0.0894431 3.86431 0.398774L3.45311 0.932229C3.40005 0.998967 3.41331 1.09751 3.47964 1.15125C3.47964 1.15125 4.51869 1.98436 4.54079 2.00227C4.61154 2.06946 4.6646 2.15904 4.67786 2.26654C4.69997 2.47705 4.55406 2.67413 4.33741 2.70101C4.23571 2.71444 4.13844 2.68309 4.0677 2.62486L2.97559 1.75593C2.92253 1.71606 2.84294 1.72457 2.79873 1.77832L0.203313 5.13761C0.0352962 5.34813 -0.0221831 5.62135 0.0352962 5.88561L0.366908 7.32339C0.384594 7.39953 0.450916 7.45328 0.530503 7.45328L1.98959 7.43537C2.25488 7.43089 2.50249 7.30995 2.6705 7.09496ZM4.7135 6.64712H7.09271C7.32484 6.64712 7.51363 6.83838 7.51363 7.07352C7.51363 7.30912 7.32484 7.49993 7.09271 7.49993H4.7135C4.48138 7.49993 4.29258 7.30912 4.29258 7.07352C4.29258 6.83838 4.48138 6.64712 4.7135 6.64712Z" fill="#5B93FF"/>
</svg>
