<svg width="15" height="4" viewBox="0 0 15 4" fill="none" xmlns="http://www.w3.org/2000/svg">
<path d="M13.5011 0.512567C12.8177 -0.170848 11.7097 -0.170848 11.0262 0.512567C10.3428 1.19598 10.3428 2.30402 11.0262 2.98744C11.7097 3.67085 12.8177 3.67085 13.5011 2.98744C14.1845 2.30405 14.1845 1.19601 13.5011 0.512567Z" fill="#BDBDBD"/>
<path d="M8.25111 0.512567C7.5677 -0.170848 6.45965 -0.170848 5.77624 0.512567C5.09282 1.19598 5.09282 2.30402 5.77624 2.98744C6.45965 3.67085 7.5677 3.67085 8.25111 2.98744C8.93453 2.30405 8.93453 1.19601 8.25111 0.512567Z" fill="#BDBDBD"/>
<path d="M3.00111 0.512567C2.31769 -0.170848 1.20965 -0.170848 0.526236 0.512567C-0.15718 1.19598 -0.15718 2.30402 0.526236 2.98744C1.20965 3.67085 2.31769 3.67085 3.00111 2.98744C3.68453 2.30405 3.68453 1.19601 3.00111 0.512567Z" fill="#BDBDBD"/>
</svg>
