<svg width="12" height="10" viewBox="0 0 12 10" fill="none" xmlns="http://www.w3.org/2000/svg">
<g clip-path="url(#clip0_20_518)">
<path d="M6.00264 9.99966H1.59708C1.38718 10.0011 1.17909 9.96012 0.984878 9.87899C0.790661 9.79786 0.614184 9.67823 0.465685 9.52705C0.317186 9.37587 0.199622 9.19613 0.119812 8.99828C0.0400018 8.80043 -0.000464886 8.58839 0.000759393 8.37448C0.000759393 7.07781 0.000759393 5.7809 0.000759393 4.48377C0.000759393 4.07878 0.332302 3.80902 0.697954 3.91087C0.93979 3.97866 1.09567 4.19245 1.09567 4.46535C1.09567 5.75321 1.09567 7.04142 1.09567 8.32998C1.09567 8.68074 1.29794 8.88619 1.64142 8.88619H10.3516C10.7043 8.88619 10.9038 8.68387 10.9038 8.32407C10.9038 7.0486 10.9099 5.77349 10.8997 4.50011C10.897 4.18724 11.1095 3.89905 11.4455 3.8921C11.7596 3.88584 11.998 4.14761 11.998 4.49524C11.998 5.79632 11.998 7.0975 11.998 8.39881C11.9945 8.82318 11.8272 9.22909 11.5323 9.52869C11.2374 9.82828 10.8386 9.99748 10.4222 9.99966C8.94866 10.0004 7.47548 10.0004 6.00264 9.99966Z" fill="#333"/>
<path d="M5.45106 1.92237C5.18535 2.18935 4.94318 2.43235 4.70066 2.67604C4.53387 2.84395 4.33637 2.89644 4.11569 2.81822C3.73298 2.68265 3.62588 2.20569 3.91342 1.8963C4.20676 1.58343 4.50999 1.27821 4.80844 0.969163C5.05642 0.712958 5.2986 0.450495 5.55237 0.200547C5.72735 0.0267306 5.93985 -0.0528774 6.18134 0.0364642C6.26819 0.071182 6.34705 0.123853 6.41294 0.191161C6.96665 0.749227 7.51752 1.30996 8.06554 1.87336C8.30669 2.12087 8.30874 2.47024 8.08055 2.6962C7.85235 2.92216 7.52559 2.90478 7.28375 2.66144L6.5487 1.92133V2.09271C6.5487 3.58869 6.5487 5.08456 6.5487 6.58031C6.5487 6.8167 6.48867 7.01693 6.27992 7.1459C6.20249 7.19347 6.11464 7.22056 6.02433 7.22473C5.93402 7.2289 5.84412 7.21001 5.76279 7.16978C5.68146 7.12954 5.61129 7.06924 5.55864 6.99434C5.50598 6.91945 5.47252 6.83233 5.4613 6.74091C5.45447 6.67626 5.45139 6.61126 5.45209 6.54624C5.45209 5.063 5.45209 3.57977 5.45209 2.09654L5.45106 1.92237Z" fill="#333"/>
</g>
<defs>
<clipPath id="clip0_20_518">
<rect width="12" height="10" fill="white"/>
</clipPath>
</defs>
</svg>
