<svg width="14" height="10" viewBox="0 0 14 10" fill="none" xmlns="http://www.w3.org/2000/svg">
<path d="M9.79346 5.70618C10.6497 6.28742 11.2497 7.07491 11.2497 8.1249V9.99988H13.7497V8.1249C13.7497 6.76241 11.5184 5.95617 9.79346 5.70618Z" fill="#6F6C99"/>
<path d="M8.74994 4.99994C10.1312 4.99994 11.2499 3.8812 11.2499 2.49997C11.2499 1.11874 10.1312 0 8.74994 0C8.45619 0 8.1812 0.0624991 7.9187 0.149998C8.43744 0.79374 8.74994 1.61248 8.74994 2.49997C8.74994 3.38746 8.43744 4.2062 7.9187 4.84994C8.1812 4.93744 8.45619 4.99994 8.74994 4.99994Z" fill="#6F6C99"/>
<path d="M4.99997 4.99994C6.3812 4.99994 7.49994 3.8812 7.49994 2.49997C7.49994 1.11874 6.3812 0 4.99997 0C3.61874 0 2.5 1.11874 2.5 2.49997C2.5 3.8812 3.61874 4.99994 4.99997 4.99994ZM4.99997 1.24999C5.68746 1.24999 6.24996 1.81248 6.24996 2.49997C6.24996 3.18746 5.68746 3.74996 4.99997 3.74996C4.31248 3.74996 3.74999 3.18746 3.74999 2.49997C3.74999 1.81248 4.31248 1.24999 4.99997 1.24999Z" fill="#6F6C99"/>
<path d="M4.99994 5.625C3.33121 5.625 0 6.46249 0 8.12497V9.99995H9.99988V8.12497C9.99988 6.46249 6.66867 5.625 4.99994 5.625ZM8.7499 8.74996H1.24999V8.13122C1.37498 7.68123 3.31246 6.87498 4.99994 6.87498C6.68742 6.87498 8.6249 7.68123 8.7499 8.12497V8.74996Z" fill="#6F6C99"/>
</svg>
