<svg width="17" height="17" viewBox="0 0 17 17" fill="none" xmlns="http://www.w3.org/2000/svg">
<g clip-path="url(#clip0_1_903)">
<path d="M8.49072 16.9981C6.89981 16.9981 5.30891 17.002 3.71801 16.9981C2.1541 16.9928 0.76857 16.0366 0.246947 14.5726C0.109252 14.1874 0.032161 13.7832 0.0184355 13.3743C-0.0129004 12.2722 0.00445627 11.1686 0.00783091 10.065C0.00482702 9.86695 0.0762216 9.67499 0.207853 9.52722C0.339485 9.37945 0.521733 9.28667 0.718434 9.2673C1.08241 9.22671 1.44446 9.48618 1.53799 9.8616C1.55387 9.93799 1.56035 10.016 1.55727 10.094C1.55727 11.143 1.55727 12.192 1.55727 13.2409C1.55727 14.3039 2.2322 15.1524 3.26484 15.393C3.4295 15.4291 3.59766 15.4468 3.76622 15.4457C6.9236 15.4486 10.0808 15.4486 13.2379 15.4457C14.4952 15.4457 15.4405 14.4962 15.4439 13.2371C15.4468 12.1881 15.4439 11.1391 15.4439 10.0901C15.4439 9.6147 15.7713 9.26488 16.2153 9.26392C16.6593 9.26295 16.9948 9.6176 16.9958 10.0853C16.9958 11.1763 17.0073 12.2678 16.9958 13.3588C16.9722 15.1625 15.6011 16.7116 13.8241 16.9561C13.6152 16.9834 13.4047 16.9964 13.194 16.9952C11.625 16.9997 10.0572 17.0007 8.49072 16.9981Z" fill="#3997FF"/>
<path d="M7.64652 2.65406C7.61518 2.71204 7.59541 2.7821 7.5501 2.82703C6.53385 3.84782 5.51616 4.86748 4.49701 5.88601C4.32876 6.05512 4.14075 6.17881 3.89825 6.17591C3.57574 6.17591 3.32698 6.03096 3.18669 5.73719C3.0464 5.44342 3.08352 5.16366 3.28311 4.90758C3.32193 4.86165 3.36347 4.81809 3.40749 4.77712L7.86924 0.313078C8.2877 -0.10535 8.70856 -0.108249 9.12268 0.307281C10.6274 1.81188 12.1319 3.31665 13.636 4.82158C13.8597 5.04529 13.9431 5.30765 13.8587 5.61253C13.7744 5.91742 13.5594 6.10199 13.2508 6.16287C12.9669 6.2194 12.7321 6.11455 12.533 5.91355C12.0991 5.47773 11.6652 5.04287 11.2313 4.60898C10.6393 4.01629 10.047 3.42375 9.45436 2.83138C9.40615 2.78306 9.35794 2.74103 9.27647 2.66179V2.90869C9.27647 5.99585 9.27647 9.08285 9.27647 12.1697C9.27999 12.2901 9.27256 12.4106 9.25429 12.5297C9.18825 12.8867 8.8474 13.1389 8.4598 13.1283C8.2842 13.1212 8.11651 13.0532 7.9854 12.9359C7.85429 12.8186 7.7679 12.6593 7.74101 12.4852C7.72856 12.3774 7.72308 12.269 7.72461 12.1605C7.72461 9.07979 7.72461 5.99891 7.72461 2.91787V2.70769L7.64652 2.65406Z" fill="#3997FF"/>
</g>
<defs>
<clipPath id="clip0_1_903">
<rect width="17" height="17" fill="white"/>
</clipPath>
</defs>
</svg>
