<svg width="14" height="14" viewBox="0 0 14 14" fill="none" xmlns="http://www.w3.org/2000/svg">
<g clip-path="url(#clip0_70_304)">
<path d="M0 3.85491C0.0203736 3.69317 0.0314873 3.52959 0.0633442 3.37008C0.137115 2.97778 0.325418 2.61607 0.604541 2.33048C0.980527 1.94632 1.3454 1.54588 1.74843 1.19391C2.36519 0.658015 3.03456 0.66098 3.62798 1.21649C4.25957 1.80865 4.86522 2.4293 5.45568 3.06216C5.8939 3.53219 5.88946 4.25313 5.46383 4.73685C5.1486 5.09547 4.80076 5.42634 4.46182 5.76387C4.39663 5.829 4.38366 5.87156 4.42663 5.95854C4.76594 6.64469 5.24565 7.2276 5.76388 7.78126C6.28993 8.35106 6.8857 8.85241 7.53713 9.27349C7.72234 9.39266 7.9246 9.4911 8.13278 9.60657C8.388 9.34751 8.63026 9.08844 8.88956 8.84639C9.07811 8.6706 9.27185 8.48777 9.4941 8.36305C9.71806 8.23415 9.97791 8.18152 10.2344 8.2131C10.491 8.24468 10.7302 8.35875 10.9162 8.53811C11.563 9.16061 12.2005 9.79347 12.8161 10.4467C13.2736 10.9319 13.2773 11.668 12.835 12.1691C12.4475 12.6099 12.0327 13.0281 11.6104 13.4367C11.2881 13.7491 10.8832 13.9152 10.4365 13.9726C10.4056 13.9789 10.3753 13.9874 10.3457 13.9981H9.82712C9.79712 13.99 9.76748 13.9796 9.73674 13.9741C9.44039 13.92 9.14146 13.886 8.85178 13.8105C7.82458 13.5414 6.8885 13.064 5.99651 12.5007C3.76307 11.0884 2.04551 9.20354 0.843839 6.84603C0.506378 6.18392 0.242261 5.4911 0.0974231 4.75905C0.050749 4.52367 0.0325992 4.28274 0.00148316 4.0444L0 3.85491ZM0.805684 3.97186C0.820501 4.13063 0.832726 4.2894 0.850877 4.44743C0.860968 4.51956 0.874942 4.59109 0.892736 4.66172C1.10907 5.6273 1.51431 6.5159 2.03032 7.35269C3.40387 9.57918 5.23157 11.3201 7.59158 12.48C8.31799 12.8371 9.06811 13.1258 9.88565 13.1965C10.3894 13.2402 10.8328 13.1225 11.1922 12.7457C11.4885 12.4363 11.7915 12.1332 12.0908 11.8268C12.1356 11.7815 12.1777 11.7335 12.2168 11.6832C12.4086 11.4337 12.4094 11.1725 12.1971 10.9389C11.9849 10.7054 11.7526 10.4815 11.527 10.2557C11.1762 9.90376 10.8265 9.55254 10.4717 9.20354C10.2146 8.95187 9.94084 8.95039 9.67117 9.18836C9.63042 9.22537 9.59153 9.26238 9.55263 9.30198C9.23962 9.61398 8.92846 9.92819 8.61322 10.238C8.39393 10.4537 8.14945 10.5055 7.88866 10.3764C7.62214 10.2474 7.36249 10.1047 7.11076 9.94891C6.25655 9.40894 5.51977 8.73203 4.85781 7.97223C4.40441 7.45187 3.99138 6.90487 3.69725 6.27571C3.44833 5.74351 3.48167 5.5988 3.90877 5.18725C4.214 4.8934 4.51739 4.5951 4.80817 4.28903C5.04599 4.03662 5.03858 3.78385 4.81447 3.51997C4.7878 3.48851 4.76039 3.45816 4.7315 3.42893C4.20005 2.89673 3.66812 2.36502 3.13568 1.83381C3.07514 1.77208 3.00633 1.71902 2.93121 1.67615C2.6971 1.54859 2.45891 1.60337 2.21665 1.84048C1.91438 2.13655 1.62396 2.44521 1.31502 2.73685C0.959412 3.07475 0.788644 3.48148 0.805684 3.97186Z" fill="#E3507A"/>
<path d="M7.78791 0C7.95572 0.0344189 8.15834 0.0677251 8.35652 0.117688C9.55638 0.413683 10.6644 1.00129 11.5822 1.82827C12.5494 2.69911 13.2614 3.74315 13.6811 4.97409C13.8126 5.3601 13.8978 5.76277 13.9885 6.16099C14.0404 6.38823 13.9078 6.57328 13.6903 6.6225C13.5916 6.64628 13.4874 6.63025 13.4004 6.57788C13.3134 6.52552 13.2506 6.44104 13.2254 6.34271C13.1628 6.12065 13.1251 5.88971 13.0636 5.66617C12.6516 4.1621 11.8041 2.95151 10.5613 2.01887C9.75686 1.41473 8.82376 1.00414 7.83458 0.819023C7.75813 0.806881 7.68289 0.788056 7.60973 0.762768C7.52395 0.729389 7.45256 0.667087 7.40791 0.586656C7.36326 0.506225 7.34817 0.412728 7.36525 0.322352C7.39859 0.141375 7.56676 0.00111029 7.78791 0Z" fill="#E3507A"/>
<path d="M7.68161 2.54182C8.06035 2.59802 8.42924 2.70742 8.77734 2.86676C10.2376 3.54577 11.1299 4.67431 11.4544 6.2524C11.5026 6.4863 11.3759 6.69652 11.1581 6.74648C10.9503 6.7957 10.7469 6.66691 10.6787 6.44226C10.5876 6.14285 10.5306 5.82827 10.4002 5.54626C9.8501 4.34123 8.91477 3.60584 7.61493 3.33678C7.37897 3.28793 7.25154 3.15174 7.24895 2.94633C7.24561 2.71576 7.42268 2.53775 7.68161 2.54182Z" fill="#E3507A"/>
</g>
<defs>
<clipPath id="clip0_70_304">
<rect width="14" height="14" fill="white"/>
</clipPath>
</defs>
</svg>
