<svg width="12" height="12" viewBox="0 0 12 12" fill="none" xmlns="http://www.w3.org/2000/svg">
<g clip-path="url(#clip0_55_359)">
<path d="M12.0004 4.21925C11.9794 4.31769 11.9603 4.41644 11.9378 4.51456C11.683 5.58042 10.7692 6.32652 9.67515 6.34971C9.23045 6.35912 8.78512 6.35222 8.3398 6.35222C6.35258 6.35222 4.36515 6.35222 2.37751 6.35222C2.15537 6.35073 1.93518 6.39395 1.73003 6.47933C1.52488 6.56471 1.33894 6.6905 1.18325 6.84924C1.02756 7.00798 0.905285 7.19643 0.823689 7.40341C0.742093 7.61039 0.702836 7.83168 0.708248 8.05415C0.721392 8.95793 1.46496 9.68052 2.39504 9.68428C3.54293 9.68836 4.69082 9.68428 5.83747 9.68428H7.02667V10.3887H6.91714C5.41499 10.3887 3.91065 10.3912 2.40724 10.3887C1.21585 10.3859 0.265114 9.59243 0.0397909 8.42093C-0.206812 7.14033 0.737039 5.83622 2.03045 5.67321C2.16543 5.65667 2.3013 5.6485 2.43729 5.64876C4.81924 5.6475 7.20108 5.6475 9.58283 5.64876C10.4093 5.64876 11.0759 5.12648 11.254 4.3459C11.309 4.103 11.3087 3.85082 11.2533 3.60802C11.1978 3.36523 11.0886 3.13802 10.9337 2.94321C10.7788 2.74841 10.5821 2.59099 10.3582 2.48259C10.1344 2.3742 9.88905 2.31761 9.64041 2.31701C8.25436 2.31262 6.86832 2.31701 5.48196 2.31701H5.33174V1.61292H5.46506C6.83953 1.61292 8.21389 1.61292 9.58815 1.61292C10.8309 1.61292 11.7944 2.44961 11.9788 3.68538C11.9839 3.70801 11.9907 3.73023 11.9991 3.75184L12.0004 4.21925Z" fill="#3997ff"/>
<path d="M12.0003 9.17208C11.7418 10.252 10.9988 11.0047 10.2593 11.759C10.1827 11.837 10.0994 11.9082 10.0187 11.9822C10.0076 11.9888 9.996 11.9943 9.98394 11.9988C9.82747 11.8483 9.66411 11.6985 9.50951 11.5399C9.04197 11.0605 8.6101 10.5527 8.28088 9.96395C7.92944 9.3354 7.87749 8.6984 8.22643 8.05324C8.62544 7.3156 9.50263 6.91089 10.356 7.06167C11.217 7.21403 11.851 7.86138 11.9793 8.71909C11.9842 8.73732 11.991 8.75497 11.9996 8.77175L12.0003 9.17208ZM9.9877 11.027C10.0531 10.9643 10.1154 10.9104 10.1705 10.8499C10.5498 10.4329 10.909 10.0016 11.16 9.49027C11.2852 9.23666 11.3327 8.97583 11.2626 8.69557C11.0652 7.90496 10.136 7.49993 9.38871 7.88051C8.87579 8.14227 8.59132 8.69275 8.72464 9.19716C8.77213 9.3621 8.83971 9.52056 8.92586 9.66896C9.20908 10.1781 9.589 10.6122 9.9877 11.027Z" fill="#3997ff"/>
<path d="M2.01447 4.98261C1.31722 4.3293 0.675988 3.65311 0.230662 2.8092C-0.343285 1.71732 0.245058 0.495346 1.33005 0.115398C2.47325 -0.284298 3.72066 0.392208 3.9754 1.55964C4.07523 2.01827 3.97759 2.44242 3.76698 2.84995C3.47468 3.40921 3.07974 3.89199 2.65007 4.34968C2.44727 4.56348 2.23134 4.76693 2.01447 4.98261ZM2.00383 3.99794C2.01666 3.99082 2.02881 3.98253 2.04013 3.97318C2.09427 3.91706 2.14904 3.86095 2.2013 3.80296C2.57371 3.39072 2.92734 2.96469 3.17551 2.46091C3.30444 2.19884 3.34951 1.92987 3.27346 1.64302C3.10791 1.02012 2.49109 0.624817 1.80667 0.723879C0.950443 0.847393 0.483212 1.71356 0.820883 2.40919C1.11474 3.01579 1.54786 3.51392 2.00383 3.99794Z" fill="#3997ff"/>
<path d="M9.64893 9.30053V8.61462H10.3374V9.30053H9.64893Z" fill="#3997ff"/>
<path d="M2.35186 2.26865H1.6665V1.57898H2.35186V2.26865Z" fill="#3997ff"/>
<path d="M12.0004 4.21925C11.9794 4.31769 11.9603 4.41644 11.9378 4.51456C11.683 5.58042 10.7692 6.32652 9.67515 6.34971C9.23045 6.35912 8.78512 6.35222 8.3398 6.35222C6.35258 6.35222 4.36515 6.35222 2.37751 6.35222C2.15537 6.35073 1.93518 6.39395 1.73003 6.47933C1.52488 6.56471 1.33894 6.6905 1.18325 6.84924C1.02756 7.00798 0.905285 7.19643 0.823689 7.40341C0.742093 7.61039 0.702836 7.83168 0.708248 8.05415C0.721392 8.95793 1.46496 9.68052 2.39504 9.68428C3.54293 9.68836 4.69082 9.68428 5.83747 9.68428H7.02667V10.3887H6.91714C5.41499 10.3887 3.91065 10.3912 2.40724 10.3887C1.21585 10.3859 0.265114 9.59243 0.0397909 8.42093C-0.206812 7.14033 0.737039 5.83622 2.03045 5.67321C2.16543 5.65667 2.3013 5.6485 2.43729 5.64876C4.81924 5.6475 7.20108 5.6475 9.58283 5.64876C10.4093 5.64876 11.0759 5.12648 11.254 4.3459C11.309 4.103 11.3087 3.85082 11.2533 3.60802C11.1978 3.36523 11.0886 3.13802 10.9337 2.94321C10.7788 2.74841 10.5821 2.59099 10.3582 2.48259C10.1344 2.3742 9.88905 2.31761 9.64041 2.31701C8.25436 2.31262 6.86832 2.31701 5.48196 2.31701H5.33174V1.61292H5.46506C6.83953 1.61292 8.21389 1.61292 9.58815 1.61292C10.8309 1.61292 11.7944 2.44961 11.9788 3.68538C11.9839 3.70801 11.9907 3.73023 11.9991 3.75184L12.0004 4.21925Z" fill="#3997ff"/>
<path d="M12.0003 9.17208C11.7418 10.252 10.9988 11.0047 10.2593 11.759C10.1827 11.837 10.0994 11.9082 10.0187 11.9822C10.0076 11.9888 9.996 11.9943 9.98394 11.9988C9.82747 11.8483 9.66411 11.6985 9.50951 11.5399C9.04197 11.0605 8.6101 10.5527 8.28088 9.96395C7.92944 9.3354 7.87749 8.6984 8.22643 8.05324C8.62544 7.3156 9.50263 6.91089 10.356 7.06167C11.217 7.21403 11.851 7.86138 11.9793 8.71909C11.9842 8.73732 11.991 8.75497 11.9996 8.77175L12.0003 9.17208ZM9.9877 11.027C10.0531 10.9643 10.1154 10.9104 10.1705 10.8499C10.5498 10.4329 10.909 10.0016 11.16 9.49027C11.2852 9.23666 11.3327 8.97583 11.2626 8.69557C11.0652 7.90496 10.136 7.49993 9.38871 7.88051C8.87579 8.14227 8.59132 8.69275 8.72464 9.19716C8.77213 9.3621 8.83971 9.52056 8.92586 9.66896C9.20908 10.1781 9.589 10.6122 9.9877 11.027Z" fill="#3997ff"/>
<path d="M2.01447 4.98261C1.31722 4.3293 0.675988 3.65311 0.230662 2.8092C-0.343285 1.71732 0.245058 0.495346 1.33005 0.115398C2.47325 -0.284298 3.72066 0.392208 3.9754 1.55964C4.07523 2.01827 3.97759 2.44242 3.76698 2.84995C3.47468 3.40921 3.07974 3.89199 2.65007 4.34968C2.44727 4.56348 2.23134 4.76693 2.01447 4.98261ZM2.00383 3.99794C2.01666 3.99082 2.02881 3.98253 2.04013 3.97318C2.09427 3.91706 2.14904 3.86095 2.2013 3.80296C2.57371 3.39072 2.92734 2.96469 3.17551 2.46091C3.30444 2.19884 3.34951 1.92987 3.27346 1.64302C3.10791 1.02012 2.49109 0.624817 1.80667 0.723879C0.950443 0.847393 0.483212 1.71356 0.820883 2.40919C1.11474 3.01579 1.54786 3.51392 2.00383 3.99794Z" fill="#3997ff"/>
<path d="M9.64893 9.30053V8.61462H10.3374V9.30053H9.64893Z" fill="#3997ff"/>
<path d="M2.35186 2.26865H1.6665V1.57898H2.35186V2.26865Z" fill="#3997ff"/>
</g>
<defs>
<clipPath id="clip0_55_359">
<rect width="12" height="12" fill="white"/>
</clipPath>
</defs>
</svg>
