<svg width="16" height="15" viewBox="0 0 16 15" fill="none" xmlns="http://www.w3.org/2000/svg">
<path d="M15.0137 1.08507C14.9746 1.33972 14.9468 1.59593 14.8991 1.84823C14.5357 3.7649 13.5515 5.28729 11.947 6.39349C10.9503 7.08076 10.2615 7.97651 9.97007 9.15468C9.88531 9.4947 9.83938 9.84323 9.83317 10.1936C9.81713 11.4422 9.82769 12.6915 9.82574 13.9405C9.82574 14.5691 9.36026 15.0217 8.73323 14.9884C8.57828 14.9774 8.42791 14.9311 8.29357 14.8531C7.52168 14.4061 6.75488 13.9509 5.99316 13.4875C5.47488 13.1711 5.21593 12.6915 5.20733 12.0868C5.19833 11.4719 5.21593 10.857 5.20263 10.2425C5.16978 8.67512 4.51967 7.41402 3.2398 6.51358C2.26894 5.83022 1.45572 5.01935 0.884242 3.97574C0.338359 2.98125 0.0399694 1.86994 0.0143051 0.73577C0.00374377 0.380206 0.124221 0.134167 0.457097 0H14.5744C14.6747 0.0377133 14.7657 0.0964126 14.8415 0.172169C14.9173 0.247926 14.976 0.338992 15.0137 0.439271V1.08507ZM1.22572 1.17856C1.23511 1.27166 1.23902 1.34989 1.25115 1.42656C1.52027 3.09915 2.33857 4.43339 3.72679 5.40777C4.19266 5.73478 4.63271 6.08604 5.00001 6.52257C5.84491 7.52472 6.31939 8.67629 6.37141 9.98902C6.39801 10.6665 6.38784 11.3456 6.38589 12.023C6.38589 12.2511 6.46999 12.4099 6.66909 12.5257C7.2836 12.884 7.89302 13.2509 8.50479 13.6139C8.54391 13.637 8.58576 13.653 8.64365 13.6816V13.486C8.64365 12.4465 8.64365 11.4071 8.64365 10.3677C8.63771 9.86027 8.69727 9.35424 8.82085 8.86209C9.19793 7.42472 10.0029 6.29035 11.2359 5.45901C12.1757 4.83262 12.9135 3.94676 13.3595 2.90905C13.5992 2.3597 13.75 1.7757 13.8062 1.17895L1.22572 1.17856Z" fill="#333333"/>
</svg>
