<svg width="14" height="14" viewBox="0 0 14 14" fill="none" xmlns="http://www.w3.org/2000/svg">
<g clip-path="url(#clip0_99_332)">
<path d="M0.335165 11.9036C-0.112384 11.3162 -0.112384 10.558 0.338664 10.0208C-0.0610582 9.67949 0.00854323 9.21007 0.0338175 8.76517C0.0614248 8.27941 0.479033 7.93026 0.986074 7.92949C2.41193 7.92793 3.83779 7.92715 5.26365 7.93221C5.40635 7.9326 5.47712 7.89951 5.54011 7.75744C6.27889 6.08802 7.96683 5.05109 9.79046 5.13478C11.9679 5.23442 13.7628 6.9743 13.9782 9.1404C14.2181 11.5521 12.4901 13.4644 10.4328 13.9027C9.62054 14.0759 8.82343 14.021 8.0477 13.7178C7.96838 13.6867 7.92056 13.696 7.85795 13.754C7.68375 13.9155 7.47223 13.9918 7.23465 13.9922C5.14427 13.9922 3.05429 13.9942 0.963911 13.9914C0.43004 13.9907 0.0314845 13.5831 0.0248743 13.0468C0.0240966 12.9786 0.027985 12.9105 0.0240966 12.8428C0.00309954 12.4866 0.0513151 12.1535 0.335553 11.9044L0.335165 11.9036ZM9.57155 5.62054C7.56361 5.61393 5.66337 7.01634 5.62099 9.59346C5.58599 11.7467 7.39874 13.5212 9.56338 13.5255C11.7331 13.5298 13.5567 11.7533 13.5213 9.59424C13.4789 7.00544 11.5694 5.61315 9.57155 5.62093V5.62054ZM7.44501 13.487V13.4449C6.87459 13.1234 6.39438 12.7007 6.0036 12.1756C5.98105 12.1453 5.92156 12.1282 5.87956 12.1282C4.24101 12.1258 2.60207 12.125 0.963522 12.1274C0.692893 12.1274 0.497309 12.3267 0.491087 12.5964C0.487588 12.742 0.488754 12.8876 0.490698 13.0335C0.494198 13.3297 0.687449 13.5247 0.985685 13.5247C3.0609 13.5259 5.13572 13.5259 7.21093 13.5236C7.28909 13.5236 7.36724 13.4994 7.4454 13.4866L7.44501 13.487ZM5.16488 10.2606C5.02218 10.2606 4.85265 10.2606 4.68351 10.2606C3.45712 10.2606 2.23073 10.2602 1.00435 10.2606C0.680061 10.2606 0.491865 10.4509 0.49031 10.7767C0.489532 10.8931 0.49031 11.0099 0.49031 11.1263C0.491087 11.4731 0.67384 11.6595 1.01679 11.6595C2.5243 11.6599 4.03182 11.6595 5.53933 11.6595C5.57899 11.6595 5.61904 11.6533 5.62915 11.6525C5.47595 11.1924 5.32469 10.7394 5.16527 10.2606H5.16488ZM5.26754 8.39501C5.08128 8.39501 4.88259 8.39501 4.68428 8.39501C3.4579 8.39501 2.23112 8.39462 1.00474 8.39501C0.680061 8.39501 0.491865 8.58535 0.49031 8.91075C0.489532 9.0174 0.49031 9.12444 0.49031 9.23109C0.49031 9.61838 0.663341 9.79353 1.04557 9.79392C2.35944 9.79392 3.67292 9.79392 4.9868 9.79392H5.11667C5.1676 9.31905 5.2166 8.86365 5.26715 8.39462L5.26754 8.39501Z" fill="#2BB596"/>
<path d="M4.44863 3.7857V3.96008C4.44863 4.65954 4.44941 5.35899 4.44863 6.05845C4.44785 6.52241 4.15778 6.81512 3.69701 6.81745C3.41589 6.81862 3.13437 6.81979 2.85324 6.81745C2.41814 6.81356 2.12184 6.51813 2.12068 6.08375C2.11873 5.37456 2.12029 4.66538 2.12029 3.95619C2.12029 3.90403 2.12029 3.85226 2.12029 3.78609C2.01453 3.78609 1.92354 3.78726 1.83294 3.78609C1.24152 3.77636 0.910626 3.19757 1.21897 2.69468C1.70074 1.90881 2.18872 1.12684 2.68216 0.348371C2.97728 -0.117154 3.59281 -0.115597 3.8891 0.351485C4.38253 1.12995 4.87129 1.91154 5.35228 2.69779C5.65596 3.19446 5.32856 3.77286 4.74687 3.7857C4.6551 3.78765 4.56295 3.7857 4.44902 3.7857H4.44863ZM2.58572 4.82418C2.58572 5.22237 2.58572 5.62056 2.58572 6.01836C2.58572 6.27681 2.65727 6.34998 2.9104 6.35037C3.1577 6.35076 3.405 6.35076 3.6523 6.35037C3.90971 6.34998 3.98242 6.27798 3.98281 6.02342C3.98281 5.21731 3.98242 4.41159 3.9832 3.60549C3.9832 3.40231 4.0633 3.32135 4.26238 3.3194C4.41752 3.31745 4.57267 3.32174 4.72781 3.31823C4.97511 3.31278 5.07543 3.13296 4.94478 2.92199C4.4669 2.15131 3.98708 1.38179 3.50532 0.613829C3.3805 0.414541 3.19036 0.412595 3.06671 0.609937C2.58222 1.38218 2.09968 2.15559 1.61986 2.93056C1.49465 3.13296 1.59653 3.31162 1.83566 3.31784C1.98575 3.32174 2.13623 3.31784 2.28671 3.31901C2.50718 3.32057 2.58534 3.39686 2.58611 3.61483C2.58689 4.01769 2.58611 4.42094 2.58611 4.82379L2.58572 4.82418Z" fill="#2BB596"/>
<path d="M10.2797 12.0176C10.2501 12.5069 10.0215 12.7844 9.62252 12.8191C9.2473 12.8518 8.96422 12.5984 8.85807 12.1262C8.75425 12.1262 8.6481 12.1278 8.54195 12.1262C8.143 12.1196 7.8331 11.8148 7.83155 11.4287C7.82999 11.0434 8.14067 10.732 8.53806 10.7281C8.91134 10.7246 9.28501 10.7269 9.65829 10.7273C9.77805 10.7273 9.88148 10.679 9.89704 10.5603C9.90715 10.4825 9.87293 10.3778 9.82044 10.3194C9.77883 10.2731 9.67968 10.2633 9.60619 10.2637C9.33206 10.2657 9.06143 10.2458 8.80947 10.131C8.16945 9.83908 7.85449 9.31828 7.8401 8.63206C7.82649 7.96686 8.13562 7.47097 8.7352 7.16698C8.77408 7.14713 8.81336 7.12844 8.85224 7.10898C8.85652 7.10704 8.85963 7.10314 8.86352 7.10042C8.89112 6.61621 9.11937 6.33908 9.51987 6.30366C9.89548 6.27018 10.1793 6.52435 10.2843 6.99688C10.3975 6.99688 10.5133 6.99377 10.6292 6.99727C11.0079 7.00895 11.3093 7.31761 11.3108 7.69322C11.3128 8.06728 11.0122 8.38528 10.6339 8.39307C10.2509 8.40124 9.86749 8.39579 9.48448 8.3954C9.37172 8.3954 9.2714 8.43627 9.24963 8.54876C9.23524 8.6235 9.25313 8.72937 9.29979 8.78386C9.34373 8.83524 9.44482 8.85859 9.52065 8.85859C9.79944 8.85859 10.0751 8.87455 10.3321 8.99171C10.9722 9.28364 11.2871 9.80443 11.3011 10.491C11.3147 11.1566 11.0056 11.6521 10.4068 11.9565C10.364 11.9783 10.3205 11.9986 10.2789 12.0188L10.2797 12.0176ZM9.13959 11.1936C8.95023 11.1936 8.76125 11.1924 8.57189 11.194C8.40236 11.1956 8.29504 11.287 8.29504 11.4264C8.29504 11.5653 8.40236 11.6576 8.5715 11.6595C8.73637 11.6615 8.90123 11.6584 9.0661 11.6603C9.24846 11.6626 9.33323 11.7471 9.33789 11.9265C9.33984 11.9947 9.33478 12.0628 9.34023 12.1305C9.35034 12.2593 9.4456 12.352 9.56497 12.3555C9.68901 12.3594 9.79166 12.2625 9.80255 12.1282C9.80644 12.0799 9.80294 12.0312 9.80294 11.9826C9.80294 11.7113 9.82083 11.6848 10.0712 11.5879C10.5522 11.4022 10.8435 11.0072 10.8505 10.5319C10.8613 9.80988 10.2983 9.29493 9.53037 9.32451C9.10382 9.34086 8.77486 9.04893 8.76281 8.64335C8.75075 8.24438 9.0731 7.93066 9.49926 7.92871C9.85815 7.92715 10.217 7.92988 10.5763 7.92754C10.7439 7.92677 10.8512 7.82907 10.8477 7.68933C10.8442 7.55505 10.7396 7.46474 10.5802 7.46241C10.42 7.46007 10.2602 7.46241 10.1 7.46163C9.88848 7.46046 9.80761 7.38067 9.80449 7.17437C9.80372 7.10626 9.8111 7.03697 9.80022 6.9708C9.77961 6.84469 9.69834 6.76879 9.57081 6.76957C9.44366 6.76996 9.36395 6.84625 9.34217 6.97236C9.33323 7.02452 9.33945 7.07901 9.33945 7.13234C9.33945 7.41181 9.32156 7.43789 9.06377 7.53597C8.42491 7.77847 8.13562 8.42148 8.38175 9.05243C8.54895 9.48059 8.97122 9.8492 9.63613 9.79937C10.0386 9.76901 10.3633 10.0757 10.3796 10.4724C10.3955 10.8596 10.0798 11.1854 9.67773 11.1924C9.49848 11.1956 9.31884 11.1928 9.1392 11.1932L9.13959 11.1936Z" fill="#2BB596"/>
</g>
<defs>
<clipPath id="clip0_99_332">
<rect width="14" height="14" fill="white"/>
</clipPath>
</defs>
</svg>
