<svg width="50" height="16" viewBox="0 0 50 16" fill="none" xmlns="http://www.w3.org/2000/svg">
<path d="M19.6326 0.251099L17.1423 14.8648H21.1251L23.6174 0.251099H19.6326Z" fill="#334D6E"/>
<path d="M13.8033 0.267356L9.90252 10.2335L9.48663 8.72867C8.71732 6.91553 6.53336 4.31157 3.96936 2.67053L7.53622 14.8575L11.7505 14.8503L18.0227 0.264282L13.8033 0.267356Z" fill="#334D6E"/>
<path d="M7.97509 1.31261C7.74358 0.422434 7.07262 0.157122 6.2398 0.125366H0.0648905L0.0136719 0.416288C4.819 1.58202 7.99865 4.39085 9.31804 7.7682L7.97509 1.31261Z" fill="#FF9800"/>
<path d="M31.6906 3.05263C32.9936 3.03214 33.9381 3.31691 34.6715 3.61193L35.0311 3.78096L35.5699 0.613598C34.7811 0.317554 33.5447 0 32.002 0C28.0664 0 25.2924 1.98216 25.2708 4.82274C25.2452 6.92168 27.2469 8.09356 28.7588 8.79321C30.3108 9.51027 30.8311 9.96611 30.824 10.6063C30.8117 11.5846 29.5865 12.0333 28.4423 12.0333C26.8474 12.0333 26.0002 11.8131 24.6921 11.2681L24.1789 11.0345L23.6185 14.3053C24.5507 14.7141 26.2706 15.0654 28.0561 15.0839C32.2427 15.0839 34.9634 13.1253 34.9921 10.0901C35.0095 8.42955 33.9473 7.16241 31.6455 6.12267C30.2524 5.44454 29.4001 4.99381 29.4083 4.30953C29.4083 3.70208 30.1315 3.05263 31.6906 3.05263Z" fill="#334D6E"/>
<path d="M45.7914 0.267456H42.7142C41.7585 0.267456 41.0476 0.527647 40.6276 1.48031L34.7139 14.8729H38.8964C38.8964 14.8729 39.5786 13.0721 39.7333 12.6777C40.1912 12.6777 44.2549 12.6839 44.8336 12.6839C44.9525 13.194 45.3192 14.8729 45.3192 14.8729H49.0141L45.7914 0.267456ZM40.8796 9.68655C41.2074 8.84759 42.4663 5.60239 42.4663 5.60239C42.4448 5.64234 42.791 4.75728 42.9969 4.20719L43.2653 5.46717C43.2653 5.46717 44.0285 8.95618 44.1883 9.68655H40.8796Z" fill="#334D6E"/>
</svg>
